PathFileType	4	(X/Y/Z)	c:\Git\powerlifing_model_clean\simulations\HC835B\Session1\HC835B_OGR_0005\marker_experimental.trc
DataRate	CameraRate	NumFrames	NumMarkers	Units	OrigDataRate	OrigDataStartFrame	OrigNumFrames
240.000000	240.000000	4	38	mm	240.000000	0	218
Frame#	Time	RPSI			LPSI			RASI			LASI			RTH1			RTH2			RTH3			RTH4			RSK1			RSK2			RSK3			RSK4			RCAL1			RCAL2			RCAL3			RST			RPT			RTN			RFMB			RSMB			RVMB			RFMH			RSMH			RVMH			RPM			LTH1			LTH2			LTH3			LTH4			LSK1			LSK2			LSK3			LSK4			LCAL1			LCAL2			LCAL3			LFMH			LVMH			
		X1	Y1	Z1	X2	Y2	Z2	X3	Y3	Z3	X4	Y4	Z4	X5	Y5	Z5	X6	Y6	Z6	X7	Y7	Z7	X8	Y8	Z8	X9	Y9	Z9	X10	Y10	Z10	X11	Y11	Z11	X12	Y12	Z12	X13	Y13	Z13	X14	Y14	Z14	X15	Y15	Z15	X16	Y16	Z16	X17	Y17	Z17	X18	Y18	Z18	X19	Y19	Z19	X20	Y20	Z20	X21	Y21	Z21	X22	Y22	Z22	X23	Y23	Z23	X24	Y24	Z24	X25	Y25	Z25	X26	Y26	Z26	X27	Y27	Z27	X28	Y28	Z28	X29	Y29	Z29	X30	Y30	Z30	X31	Y31	Z31	X32	Y32	Z32	X33	Y33	Z33	X34	Y34	Z34	X35	Y35	Z35	X36	Y36	Z36	X37	Y37	Z37	X38	Y38	Z38	

1	0	477.1612548828126	1220.535034179688	288.7853698730469	363.8271484375001	1219.9921875	284.6722106933594	544.4885864257814	1148.083984375	104.2989578247071	316.1112976074219	1126.424926757813	97.21988677978518	606.0859375000001	867.1921386718752	106.2096023559571	587.0075073242189	874.7254028320315	48.59846115112306	592.8796997070314	797.260192871094	60.28785324096681	563.5078125000001	802.719177246094	9.575461387634279	537.0291137695314	351.6910705566407	56.54919433593751	542.2108764648439	345.6578063964844	-4.731840610504151	529.9452514648439	298.5307006835938	32.68584060668946	523.0949707031251	294.3096313476563	-26.82579994201661	455.8856506347657	145.994384765625	62.60144042968751	415.477508544922	121.2535018920899	45.72489929199219	475.6816406250001	101.8729629516602	55.59323120117189	418.672821044922	146.8157958984375	-20.84400749206543	509.8345336914064	111.385368347168	1.682043075561524	441.8060607910157	166.4886474609375	-71.0876922607422	444.919403076172	150.5924530029297	-104.1929244995117	498.3691711425782	160.2424774169922	-106.0252838134766	517.6168212890626	87.68878173828126	-44.58062362670899	439.1701049804689	126.8684997558594	-161.2735900878907	497.3186035156251	127.8095016479492	-167.7837219238282	539.9637451171876	81.90512084960939	-121.2920684814453	493.3710021972657	132.2890014648438	-222.9531860351563	245.9350891113282	878.646423339844	301.2122802734376	255.0814361572266	842.8625488281252	252.7960968017579	255.4163055419922	795.264099121094	318.1871337890626	277.6719360351563	761.9607543945314	272.8937988281251	295.4485473632813	523.2658081054689	678.7687988281251	286.3625183105469	474.0516357421876	661.3058471679689	295.3121948242188	477.044403076172	710.2859497070314	303.4341735839844	424.8882141113282	687.5735473632814	365.3196411132813	442.5849914550782	832.3337402343752	346.1611022949219	430.6699829101564	874.7233886718752	402.7611694335939	428.275848388672	858.5118408203127	393.3366699218751	218.999496459961	793.2092285156252	304.0440979003907	242.5506896972657	854.594421386719	
2	0.004166666666666667	477.7425842285157	1219.43212890625	274.4945373535157	364.2952575683594	1219.471923828125	270.1539916992188	544.7786865234376	1146.357055664063	90.31424713134767	315.8358154296876	1126.696655273438	82.65547943115236	606.5983276367189	864.001159667969	95.20370483398439	587.2799072265626	870.686462402344	37.6316032409668	593.2124633789064	793.4355468750002	50.3976287841797	563.6156616210939	798.117370605469	-0.2619793415069581	537.6941528320314	348.2329101562501	39.35509109497071	542.5428466796876	343.5882263183594	-22.1082878112793	530.5927124023439	295.6060180664063	14.34080600738526	523.4097900390626	292.7630615234376	-45.23648834228516	456.5259399414064	142.1907653808594	40.9442253112793	415.9391174316407	118.1993865966797	23.71284675598145	476.0143432617189	98.13790130615237	32.9145736694336	419.1593322753907	145.1298980712891	-42.30002212524415	510.0811157226564	108.5377807617188	-20.89291572570801	442.280242919922	165.3660430908203	-92.34506225585939	445.0057678222657	150.3454742431641	-125.5464630126953	498.7210083007814	159.949462890625	-127.4752731323242	517.4439086914064	85.71460723876955	-67.7369842529297	438.8649291992189	128.0173950195313	-183.1654510498047	496.9938049316407	128.6119079589844	-189.9478912353516	539.0091552734376	81.18408203125001	-144.4656982421875	492.806121826172	134.5963897705078	-244.8767242431641	245.9307556152344	876.591735839844	284.7565917968751	255.6263580322266	841.4024047851565	236.1053009033204	255.6561889648438	793.251647949219	301.3148498535157	278.0346069335938	760.2231445312501	256.0551147460938	295.7587890625001	528.8952636718751	665.4603271484376	286.2273559570313	479.225555419922	649.3915405273439	295.6793212890626	483.5303955078126	698.2279052734376	302.9316711425782	430.9722290039064	676.7550659179689	365.6381225585938	452.0147705078126	820.7083740234377	346.8519897460938	441.240936279297	863.6003417968752	403.3324279785157	438.3743591308595	846.9350585937502	393.1213684082032	227.6008758544922	786.9797363281252	304.4338684082032	252.9480590820313	848.4129028320315	
3	0.008333333333333333	478.3450012207032	1217.903564453125	260.3019104003907	364.7691345214844	1218.59375	255.6045227050782	545.0174560546876	1144.34814453125	76.38944244384767	315.5395812988282	1126.639892578125	68.27584075927736	607.2955932617189	860.944030761719	84.15953826904298	587.6902465820314	866.8138427734377	26.56974983215333	593.6337280273439	789.7274169921877	40.3926010131836	563.8186035156251	793.6738281250002	-10.14471054077149	538.0325317382814	345.0750122070313	22.6136646270752	542.9755249023439	341.5719909667969	-38.89068603515626	531.2197875976564	292.9419250488282	-3.438854455947877	523.8881225585939	291.1797790527344	-62.97214508056642	457.7135620117189	138.7511596679688	20.3536376953125	416.9228515625001	115.2724685668946	2.92972207069397	476.9686889648439	94.83870697021486	11.27659893035889	419.8275146484376	143.4553833007813	-62.5984230041504	510.6626281738282	106.0100936889649	-42.59625244140626	442.7529296875001	164.5377044677735	-112.4857482910157	444.9812622070314	150.1205596923828	-145.8988800048828	498.4354858398439	159.196517944336	-148.1407318115235	517.5086669921876	83.93365478515626	-89.92271423339845	438.1449279785157	128.8094940185547	-203.7728118896485	496.275848388672	129.3473358154297	-211.1027374267579	538.4511108398439	80.80876922607423	-166.9178771972657	491.7206420898439	136.7391662597657	-265.7707519531251	245.7706909179688	874.6347656250002	268.4097900390626	255.9130249023438	839.6181640625002	219.5281982421876	255.4611968994141	790.9661254882815	284.4369201660157	278.1397399902344	758.3376464843751	238.9219512939454	296.0345458984376	534.2810668945314	651.5534667968751	285.9952697753907	484.3150939941407	637.0609130859376	295.8151245117188	489.9348754882814	685.5351562500001	302.6114501953126	436.7097473144532	665.5895385742189	365.9970092773438	461.4387817382814	808.6204833984377	347.6485290527344	451.7855224609376	851.9204101562502	403.8395996093751	448.4165039062501	834.821228027344	392.8253173828126	236.1949157714844	780.287292480469	304.7633972167969	263.0119628906251	842.1419067382815	
4	0.0125	479.0233154296876	1216.047485351563	246.1920013427735	365.6767578125001	1216.624877929688	240.9716339111329	545.0366821289064	1142.112182617188	62.42123031616212	315.1470947265626	1126.503051757813	53.94089508056642	608.1107788085939	857.862731933594	72.97882080078126	588.2279052734376	862.9339599609377	15.39131450653077	594.1793212890626	785.9288330078127	30.25345993041993	564.1523437500001	789.0989379882815	-20.0814266204834	538.0695800781251	342.0591430664063	6.484288215637209	543.4045410156251	339.6212463378907	-55.06860733032228	531.5102539062501	290.4110717773438	-20.46949768066407	524.4713745117189	289.6065368652344	-80.04136657714845	459.4268493652345	135.6953582763672	0.7599918246269228	418.2467651367189	112.4479904174805	-16.56000518798828	478.4266052246095	91.82373046875001	-9.276793479919435	420.536102294922	141.6350860595703	-81.73551177978517	511.4783020019532	103.8082733154297	-63.34397888183595	442.9309082031251	163.2871246337891	-131.3960876464844	444.6558227539064	149.573226928711	-165.1099853515625	498.3332824707032	158.8213806152344	-167.8605651855469	517.8081054687501	82.4611282348633	-111.110595703125	437.0894165039064	129.3004913330078	-223.2295837402344	495.2136840820314	129.9189453125	-231.245834350586	537.6531372070314	80.42058563232423	-188.3329010009766	489.9568176269532	138.5477752685547	-285.5827941894532	245.7238311767579	872.150817871094	252.055160522461	255.9850463867188	837.7469482421877	202.9274291992188	255.1969299316407	788.5767822265627	267.4242553710938	278.0871887207032	756.3537597656251	221.6314697265626	296.4154052734376	539.7017211914064	637.2761840820314	285.7465209960938	489.2225341796876	624.2597045898439	296.0584716796876	496.0970764160157	672.4418945312501	302.0952148437501	442.3140869140626	654.0531005859376	366.1804809570313	470.7135009765626	795.8253173828127	348.3374328613282	462.2532958984376	839.7219848632815	404.4584045410157	458.396697998047	822.2393188476565	392.481903076172	244.8538360595704	773.230163574219	304.8399047851563	273.8740844726563	834.8867797851565	
